Land_normalized_pl12_filtered_grf
version=1
nRows=10
nColumns=37
inDegrees=yes
endheader
time		1_ground_force_vx		1_ground_force_vy		1_ground_force_vz		1_ground_force_px		1_ground_force_py		1_ground_force_pz		1_ground_torque_x		1_ground_torque_y		1_ground_torque_z		2_ground_force_vx		2_ground_force_vy		2_ground_force_vz		2_ground_force_px		2_ground_force_py		2_ground_force_pz		2_ground_torque_x		2_ground_torque_y		2_ground_torque_z		3_ground_force_vx		3_ground_force_vy		3_ground_force_vz		3_ground_force_px		3_ground_force_py		3_ground_force_pz		3_ground_torque_x		3_ground_torque_y		3_ground_torque_z		4_ground_force_vx		4_ground_force_vy		4_ground_force_vz		4_ground_force_px		4_ground_force_py		4_ground_force_pz		4_ground_torque_x		4_ground_torque_y		4_ground_torque_z		
0.559500		4.819608		-31.821599		-28.447418		0.091294		0.000000		0.245125		-0.013410		0.088539		0.079151		-4.355337		-24.633135		-5.279404		-0.158276		0.000000		0.269652		0.078082		0.441619		0.094648		21.224556		1.940024		-0.095684		0.375763		1.311052		1.913842		-0.092558		-0.008460		0.000417		-17.840634		-0.654435		1.691412		-0.265005		1.309897		1.924588		0.011083		0.000407		-0.001051		
0.562354		7.440214		-52.532967		-45.713272		0.093405		0.000000		0.244558		-0.028848		0.203701		0.177252		-2.594605		-56.779424		-22.384555		-0.156179		0.000000		0.265667		0.051348		1.124392		0.443321		21.471652		1.871212		-0.173355		0.375722		1.311022		1.913836		-0.092384		-0.008051		0.000746		-17.931262		-0.624090		1.599244		-0.265017		1.309893		1.924586		0.014636		0.000509		-0.001305		
0.565207		8.121188		-59.460293		-51.495480		0.095612		0.000000		0.243136		-0.042926		0.314312		0.272217		1.513336		-80.682655		-38.949814		-0.155375		0.000000		0.264568		-0.031621		1.683586		0.812814		21.674733		1.818532		-0.225971		0.375690		1.311000		1.913841		-0.092799		-0.007786		0.000968		-18.020567		-0.586177		1.514187		-0.265031		1.309892		1.924592		0.018216		0.000592		-0.001530		
0.568061		5.222249		-38.464960		-35.050451		0.102006		0.000000		0.236634		-0.050675		0.373180		0.340275		7.690200		-78.611490		-46.498817		-0.155195		0.000000		0.264950		-0.172343		1.760963		1.041717		21.785213		1.810135		-0.237710		0.375673		1.310991		1.913854		-0.093905		-0.007802		0.001025		-18.083795		-0.550875		1.450194		-0.265046		1.309891		1.924603		0.021263		0.000648		-0.001705		
0.570914		-2.504659		23.508996		12.392993		0.070036		0.000000		0.278431		-0.065374		0.625182		0.310271		14.712227		-31.360405		-34.588808		-0.157942		0.000000		0.276540		-0.404941		0.859789		0.950483		21.782848		1.857356		-0.201957		0.375671		1.310997		1.913873		-0.095585		-0.008150		0.000886		-18.096421		-0.531446		1.417295		-0.265065		1.309892		1.924618		0.023236		0.000682		-0.001819		
0.573768		-15.196630		133.230276		93.033983		0.086789		0.000000		0.256402		-0.062313		0.546215		0.381346		20.440258		75.117184		6.116305		-0.143784		0.000000		0.254259		-0.226324		-0.840195		-0.071584		21.678543		1.948764		-0.126106		0.375682		1.311014		1.913894		-0.097566		-0.008771		0.000568		-18.044821		-0.539040		1.419003		-0.265086		1.309893		1.924636		0.023747		0.000709		-0.001867		
0.576621		-31.419029		287.302951		199.247487		0.089144		0.000000		0.254944		-0.074651		0.682579		0.473392		22.373924		242.991761		80.015712		-0.148660		0.000000		0.255115		-0.345085		-3.749661		-1.234978		21.506404		2.056998		-0.028926		0.375701		1.311041		1.913912		-0.099544		-0.009521		0.000134		-17.935433		-0.575671		1.449401		-0.265109		1.309894		1.924655		0.022723		0.000729		-0.001837		
0.579475		-48.209746		471.538003		313.278186		0.089986		0.000000		0.255652		-0.118250		1.156626		0.768421		18.563359		458.783764		183.596178		-0.148490		0.000000		0.254002		-0.302136		-7.467318		-2.988283		21.311603		2.150566		0.066076		0.375724		1.311073		1.913925		-0.101226		-0.010215		-0.000314		-17.796167		-0.631037		1.492768		-0.265132		1.309897		1.924677		0.020467		0.000726		-0.001716		
0.582328		-61.712006		663.556458		410.311990		0.090329		0.000000		0.257529		-0.213467		2.295993		1.419394		8.756318		693.364108		303.860950		-0.147462		0.000000		0.251937		-0.141666		-11.214452		-4.914581		21.138868		2.202948		0.137791		0.375744		1.311101		1.913932		-0.102288		-0.010660		-0.000667		-17.668935		-0.685757		1.526876		-0.265156		1.309902		1.924703		0.017580		0.000682		-0.001519		
0.585182		-68.685019		839.511616		466.865558		0.090502		0.000000		0.260421		-0.365123		4.464819		2.481968		-4.593526		909.140922		420.246745		-0.145936		0.000000		0.249008		0.070905		-14.051882		-6.495300		21.020838		2.200093		0.174931		0.375756		1.311123		1.913934		-0.102422		-0.010719		-0.000852		-17.592924		-0.719867		1.531612		-0.265181		1.309910		1.924737		0.014732		0.000603		-0.001283		
